<svg xmlns="http://www.w3.org/2000/svg" width="820" height="380" viewBox="0 0 820 380" font-family="Consolas, 'Cascadia Code', monospace" font-size="13">
  <rect width="820" height="380" rx="10" fill="#0d1117" stroke="#2d333c"/>
  <circle cx="22" cy="20" r="5" fill="#f47067"/>
  <circle cx="40" cy="20" r="5" fill="#d9a445"/>
  <circle cx="58" cy="20" r="5" fill="#4ec9b0"/>
  <text x="20" y="56" fill="#8b949e">$ <tspan fill="#e6edf3">npx mcptail init</tspan></text>
  <text x="20" y="78" fill="#4ec9b0">+ wrapped github     (claude-code: .mcp.json)</text>
  <text x="20" y="98" fill="#4ec9b0">+ wrapped firecrawl  (claude-code: .mcp.json)</text>
  <text x="20" y="118" fill="#4ec9b0">+ wrapped postgres   (cursor: ~/.cursor/mcp.json)</text>
  <text x="20" y="146" fill="#8b949e">$ <tspan fill="#e6edf3">npx mcptail ui</tspan></text>
  <text x="20" y="168" fill="#8b949e">mcptail dashboard: <tspan fill="#4ec9b0">http://localhost:4747</tspan></text>
  <rect x="20" y="190" width="780" height="166" rx="8" fill="#161b22" stroke="#2d333c"/>
  <text x="36" y="216" fill="#4ec9b0" font-weight="bold">mcptail</text>
  <circle cx="96" cy="211" r="4" fill="#4ec9b0"/>
  <text x="700" y="216" fill="#8b949e" font-size="11">● live</text>
  <text x="36" y="244" fill="#8b949e" font-size="11">CALL</text>
  <text x="440" y="244" fill="#8b949e" font-size="11">LATENCY</text>
  <text x="560" y="244" fill="#8b949e" font-size="11">TOKENS</text>
  <text x="680" y="244" fill="#8b949e" font-size="11">TIME</text>
  <circle cx="42" cy="266" r="4" fill="#4ec9b0"/>
  <text x="56" y="270" fill="#e6edf3">firecrawl · scrape</text>
  <text x="440" y="270" fill="#8b949e">1.2s</text>
  <text x="560" y="270" fill="#8b949e">3,410</text>
  <text x="680" y="270" fill="#8b949e">14:02:11</text>
  <circle cx="42" cy="292" r="4" fill="#f47067"/>
  <text x="56" y="296" fill="#e6edf3">github · create_pr</text>
  <text x="440" y="296" fill="#f47067">error -32602</text>
  <text x="560" y="296" fill="#8b949e">212</text>
  <text x="680" y="296" fill="#8b949e">14:02:13</text>
  <circle cx="42" cy="318" r="4" fill="#4ec9b0"/>
  <text x="56" y="322" fill="#e6edf3">postgres · query</text>
  <text x="440" y="322" fill="#8b949e">86ms</text>
  <text x="560" y="322" fill="#8b949e">1,882</text>
  <text x="680" y="322" fill="#8b949e">14:02:15</text>
  <text x="36" y="346" fill="#8b949e" font-size="11">▶ replay · copy request · export</text>
</svg>
